<?xml version="1.0" encoding="utf-8" standalone="no"?>
<!DOCTYPE svg PUBLIC "-//W3C//DTD SVG 1.1//EN"
  "http://www.w3.org/Graphics/SVG/1.1/DTD/svg11.dtd">
<!-- Created with matplotlib (https://matplotlib.org/) -->
<svg height="298.324237pt" version="1.1" viewBox="0 0 365.573052 298.324237" width="365.573052pt" xmlns="http://www.w3.org/2000/svg" xmlns:xlink="http://www.w3.org/1999/xlink">
 <defs>
  <style type="text/css">
*{stroke-linecap:butt;stroke-linejoin:round;}
  </style>
 </defs>
 <g id="figure_1">
  <g id="patch_1">
   <path d="M 0 298.324237 
L 365.573052 298.324237 
L 365.573052 0 
L 0 0 
z
" style="fill:#ffffff;"/>
  </g>
  <g id="axes_1">
   <g id="patch_2">
    <path d="M 290.739452 154.523187 
C 290.739452 137.050434 287.297701 119.74758 280.611167 103.604861 
C 273.924634 87.462141 264.123355 72.79349 251.768252 60.438388 
C 239.413149 48.083285 224.744499 38.282006 208.601779 31.595472 
C 192.459059 24.908939 175.156206 21.467187 157.683452 21.467187 
C 140.210698 21.467187 122.907845 24.908939 106.765125 31.595472 
C 90.622406 38.282006 75.953755 48.083285 63.598652 60.438388 
C 51.24355 72.79349 41.442271 87.462141 34.755737 103.604861 
C 28.069204 119.74758 24.627452 137.050434 24.627452 154.523187 
C 24.627452 171.995941 28.069204 189.298795 34.755737 205.441514 
C 41.442271 221.584234 51.24355 236.252885 63.598652 248.607987 
C 75.953755 260.96309 90.622406 270.764369 106.765125 277.450903 
C 122.907845 284.137436 140.210698 287.579187 157.683452 287.579187 
C 175.156206 287.579187 192.459059 284.137436 208.601779 277.450903 
C 224.744499 270.764369 239.413149 260.96309 251.768252 248.607987 
C 264.123355 236.252885 273.924634 221.584234 280.611167 205.441514 
C 287.297701 189.298795 290.739452 171.995941 290.739452 154.523188 
M 157.683452 154.523187 
C 157.683452 154.523187 157.683452 154.523187 157.683452 154.523187 
C 157.683452 154.523187 157.683452 154.523187 157.683452 154.523187 
C 157.683452 154.523187 157.683452 154.523187 157.683452 154.523187 
C 157.683452 154.523187 157.683452 154.523187 157.683452 154.523187 
C 157.683452 154.523187 157.683452 154.523187 157.683452 154.523187 
C 157.683452 154.523187 157.683452 154.523187 157.683452 154.523187 
C 157.683452 154.523187 157.683452 154.523187 157.683452 154.523187 
C 157.683452 154.523187 157.683452 154.523187 157.683452 154.523187 
C 157.683452 154.523187 157.683452 154.523187 157.683452 154.523187 
C 157.683452 154.523187 157.683452 154.523187 157.683452 154.523187 
C 157.683452 154.523187 157.683452 154.523187 157.683452 154.523187 
C 157.683452 154.523187 157.683452 154.523187 157.683452 154.523187 
C 157.683452 154.523187 157.683452 154.523187 157.683452 154.523187 
C 157.683452 154.523187 157.683452 154.523187 157.683452 154.523187 
C 157.683452 154.523187 157.683452 154.523187 157.683452 154.523187 
C 157.683452 154.523187 157.683452 154.523187 157.683452 154.523187 
M 290.739452 154.523187 
z
" style="fill:#ffffff;"/>
   </g>
   <g id="patch_3">
    <path clip-path="url(#p97f8700bd1)" d="M 157.683452 141.217587 
L 168.086189 146.227282 
L 170.655453 157.483962 
L 163.456536 166.511119 
L 151.910369 166.511119 
L 144.711451 157.483962 
L 147.280715 146.227282 
z
" style="fill:#0000ff;opacity:0.1;"/>
   </g>
   <g id="patch_4">
    <path clip-path="url(#p97f8700bd1)" d="M 157.683452 127.911987 
L 178.488926 137.931376 
L 183.627454 160.444737 
L 169.229619 178.49905 
L 146.137285 178.49905 
L 131.739451 160.444737 
L 136.877978 137.931376 
z
" style="fill:#ff0000;opacity:0.1;"/>
   </g>
   <g id="matplotlib.axis_1">
    <g id="xtick_1">
     <g id="line2d_1">
      <path clip-path="url(#p97f8700bd1)" d="M 157.683452 154.523187 
L 157.683452 21.467187 
" style="fill:none;stroke:#b0b0b0;stroke-linecap:square;stroke-width:0.8;"/>
     </g>
     <g id="text_1">
      <!-- Mesh_ip -->
      <defs>
       <path d="M 9.8125 72.90625 
L 24.515625 72.90625 
L 43.109375 23.296875 
L 61.8125 72.90625 
L 76.515625 72.90625 
L 76.515625 0 
L 66.890625 0 
L 66.890625 64.015625 
L 48.09375 14.015625 
L 38.1875 14.015625 
L 19.390625 64.015625 
L 19.390625 0 
L 9.8125 0 
z
" id="DejaVuSans-77"/>
       <path d="M 56.203125 29.59375 
L 56.203125 25.203125 
L 14.890625 25.203125 
Q 15.484375 15.921875 20.484375 11.0625 
Q 25.484375 6.203125 34.421875 6.203125 
Q 39.59375 6.203125 44.453125 7.46875 
Q 49.3125 8.734375 54.109375 11.28125 
L 54.109375 2.78125 
Q 49.265625 0.734375 44.1875 -0.34375 
Q 39.109375 -1.421875 33.890625 -1.421875 
Q 20.796875 -1.421875 13.15625 6.1875 
Q 5.515625 13.8125 5.515625 26.8125 
Q 5.515625 40.234375 12.765625 48.109375 
Q 20.015625 56 32.328125 56 
Q 43.359375 56 49.78125 48.890625 
Q 56.203125 41.796875 56.203125 29.59375 
z
M 47.21875 32.234375 
Q 47.125 39.59375 43.09375 43.984375 
Q 39.0625 48.390625 32.421875 48.390625 
Q 24.90625 48.390625 20.390625 44.140625 
Q 15.875 39.890625 15.1875 32.171875 
z
" id="DejaVuSans-101"/>
       <path d="M 44.28125 53.078125 
L 44.28125 44.578125 
Q 40.484375 46.53125 36.375 47.5 
Q 32.28125 48.484375 27.875 48.484375 
Q 21.1875 48.484375 17.84375 46.4375 
Q 14.5 44.390625 14.5 40.28125 
Q 14.5 37.15625 16.890625 35.375 
Q 19.28125 33.59375 26.515625 31.984375 
L 29.59375 31.296875 
Q 39.15625 29.25 43.1875 25.515625 
Q 47.21875 21.78125 47.21875 15.09375 
Q 47.21875 7.46875 41.1875 3.015625 
Q 35.15625 -1.421875 24.609375 -1.421875 
Q 20.21875 -1.421875 15.453125 -0.5625 
Q 10.6875 0.296875 5.421875 2 
L 5.421875 11.28125 
Q 10.40625 8.6875 15.234375 7.390625 
Q 20.0625 6.109375 24.8125 6.109375 
Q 31.15625 6.109375 34.5625 8.28125 
Q 37.984375 10.453125 37.984375 14.40625 
Q 37.984375 18.0625 35.515625 20.015625 
Q 33.0625 21.96875 24.703125 23.78125 
L 21.578125 24.515625 
Q 13.234375 26.265625 9.515625 29.90625 
Q 5.8125 33.546875 5.8125 39.890625 
Q 5.8125 47.609375 11.28125 51.796875 
Q 16.75 56 26.8125 56 
Q 31.78125 56 36.171875 55.265625 
Q 40.578125 54.546875 44.28125 53.078125 
z
" id="DejaVuSans-115"/>
       <path d="M 54.890625 33.015625 
L 54.890625 0 
L 45.90625 0 
L 45.90625 32.71875 
Q 45.90625 40.484375 42.875 44.328125 
Q 39.84375 48.1875 33.796875 48.1875 
Q 26.515625 48.1875 22.3125 43.546875 
Q 18.109375 38.921875 18.109375 30.90625 
L 18.109375 0 
L 9.078125 0 
L 9.078125 75.984375 
L 18.109375 75.984375 
L 18.109375 46.1875 
Q 21.34375 51.125 25.703125 53.5625 
Q 30.078125 56 35.796875 56 
Q 45.21875 56 50.046875 50.171875 
Q 54.890625 44.34375 54.890625 33.015625 
z
" id="DejaVuSans-104"/>
       <path d="M 50.984375 -16.609375 
L 50.984375 -23.578125 
L -0.984375 -23.578125 
L -0.984375 -16.609375 
z
" id="DejaVuSans-95"/>
       <path d="M 9.421875 54.6875 
L 18.40625 54.6875 
L 18.40625 0 
L 9.421875 0 
z
M 9.421875 75.984375 
L 18.40625 75.984375 
L 18.40625 64.59375 
L 9.421875 64.59375 
z
" id="DejaVuSans-105"/>
       <path d="M 18.109375 8.203125 
L 18.109375 -20.796875 
L 9.078125 -20.796875 
L 9.078125 54.6875 
L 18.109375 54.6875 
L 18.109375 46.390625 
Q 20.953125 51.265625 25.265625 53.625 
Q 29.59375 56 35.59375 56 
Q 45.5625 56 51.78125 48.09375 
Q 58.015625 40.1875 58.015625 27.296875 
Q 58.015625 14.40625 51.78125 6.484375 
Q 45.5625 -1.421875 35.59375 -1.421875 
Q 29.59375 -1.421875 25.265625 0.953125 
Q 20.953125 3.328125 18.109375 8.203125 
z
M 48.6875 27.296875 
Q 48.6875 37.203125 44.609375 42.84375 
Q 40.53125 48.484375 33.40625 48.484375 
Q 26.265625 48.484375 22.1875 42.84375 
Q 18.109375 37.203125 18.109375 27.296875 
Q 18.109375 17.390625 22.1875 11.75 
Q 26.265625 6.109375 33.40625 6.109375 
Q 40.53125 6.109375 44.609375 11.75 
Q 48.6875 17.390625 48.6875 27.296875 
z
" id="DejaVuSans-112"/>
      </defs>
      <g transform="translate(127.342437 11.397656)scale(0.15 -0.15)">
       <use xlink:href="#DejaVuSans-77"/>
       <use x="86.279297" xlink:href="#DejaVuSans-101"/>
       <use x="147.802734" xlink:href="#DejaVuSans-115"/>
       <use x="199.902344" xlink:href="#DejaVuSans-104"/>
       <use x="263.28125" xlink:href="#DejaVuSans-95"/>
       <use x="313.28125" xlink:href="#DejaVuSans-105"/>
       <use x="341.064453" xlink:href="#DejaVuSans-112"/>
      </g>
     </g>
    </g>
    <g id="xtick_2">
     <g id="line2d_2">
      <path clip-path="url(#p97f8700bd1)" d="M 157.683452 154.523187 
L 261.710822 71.564128 
" style="fill:none;stroke:#b0b0b0;stroke-linecap:square;stroke-width:0.8;"/>
     </g>
     <g id="text_2">
      <!-- Mesh -->
      <g transform="translate(252.910369 66.974334)scale(0.15 -0.15)">
       <use xlink:href="#DejaVuSans-77"/>
       <use x="86.279297" xlink:href="#DejaVuSans-101"/>
       <use x="147.802734" xlink:href="#DejaVuSans-115"/>
       <use x="199.902344" xlink:href="#DejaVuSans-104"/>
      </g>
     </g>
    </g>
    <g id="xtick_3">
     <g id="line2d_3">
      <path clip-path="url(#p97f8700bd1)" d="M 157.683452 154.523187 
L 287.40346 184.130933 
" style="fill:none;stroke:#b0b0b0;stroke-linecap:square;stroke-width:0.8;"/>
     </g>
     <g id="text_3">
      <!-- DA -->
      <defs>
       <path d="M 19.671875 64.796875 
L 19.671875 8.109375 
L 31.59375 8.109375 
Q 46.6875 8.109375 53.6875 14.9375 
Q 60.6875 21.78125 60.6875 36.53125 
Q 60.6875 51.171875 53.6875 57.984375 
Q 46.6875 64.796875 31.59375 64.796875 
z
M 9.8125 72.90625 
L 30.078125 72.90625 
Q 51.265625 72.90625 61.171875 64.09375 
Q 71.09375 55.28125 71.09375 36.53125 
Q 71.09375 17.671875 61.125 8.828125 
Q 51.171875 0 30.078125 0 
L 9.8125 0 
z
" id="DejaVuSans-68"/>
       <path d="M 34.1875 63.1875 
L 20.796875 26.90625 
L 47.609375 26.90625 
z
M 28.609375 72.90625 
L 39.796875 72.90625 
L 67.578125 0 
L 57.328125 0 
L 50.6875 18.703125 
L 17.828125 18.703125 
L 11.1875 0 
L 0.78125 0 
z
" id="DejaVuSans-65"/>
      </defs>
      <g transform="translate(290.148154 191.385288)scale(0.15 -0.15)">
       <use xlink:href="#DejaVuSans-68"/>
       <use x="76.986328" xlink:href="#DejaVuSans-65"/>
      </g>
     </g>
    </g>
    <g id="xtick_4">
     <g id="line2d_4">
      <path clip-path="url(#p97f8700bd1)" d="M 157.683452 154.523187 
L 215.414287 274.402501 
" style="fill:none;stroke:#b0b0b0;stroke-linecap:square;stroke-width:0.8;"/>
     </g>
     <g id="text_4">
      <!-- PLX -->
      <defs>
       <path d="M 19.671875 64.796875 
L 19.671875 37.40625 
L 32.078125 37.40625 
Q 38.96875 37.40625 42.71875 40.96875 
Q 46.484375 44.53125 46.484375 51.125 
Q 46.484375 57.671875 42.71875 61.234375 
Q 38.96875 64.796875 32.078125 64.796875 
z
M 9.8125 72.90625 
L 32.078125 72.90625 
Q 44.34375 72.90625 50.609375 67.359375 
Q 56.890625 61.8125 56.890625 51.125 
Q 56.890625 40.328125 50.609375 34.8125 
Q 44.34375 29.296875 32.078125 29.296875 
L 19.671875 29.296875 
L 19.671875 0 
L 9.8125 0 
z
" id="DejaVuSans-80"/>
       <path d="M 9.8125 72.90625 
L 19.671875 72.90625 
L 19.671875 8.296875 
L 55.171875 8.296875 
L 55.171875 0 
L 9.8125 0 
z
" id="DejaVuSans-76"/>
       <path d="M 6.296875 72.90625 
L 16.890625 72.90625 
L 35.015625 45.796875 
L 53.21875 72.90625 
L 63.8125 72.90625 
L 40.375 37.890625 
L 65.375 0 
L 54.78125 0 
L 34.28125 31 
L 13.625 0 
L 2.984375 0 
L 29 38.921875 
z
" id="DejaVuSans-88"/>
      </defs>
      <g transform="translate(207.649987 291.155128)scale(0.15 -0.15)">
       <use xlink:href="#DejaVuSans-80"/>
       <use x="60.302734" xlink:href="#DejaVuSans-76"/>
       <use x="116.015625" xlink:href="#DejaVuSans-88"/>
      </g>
     </g>
    </g>
    <g id="xtick_5">
     <g id="line2d_5">
      <path clip-path="url(#p97f8700bd1)" d="M 157.683452 154.523187 
L 99.952617 274.402501 
" style="fill:none;stroke:#b0b0b0;stroke-linecap:square;stroke-width:0.8;"/>
     </g>
     <g id="text_5">
      <!-- Water -->
      <defs>
       <path d="M 3.328125 72.90625 
L 13.28125 72.90625 
L 28.609375 11.28125 
L 43.890625 72.90625 
L 54.984375 72.90625 
L 70.3125 11.28125 
L 85.59375 72.90625 
L 95.609375 72.90625 
L 77.296875 0 
L 64.890625 0 
L 49.515625 63.28125 
L 33.984375 0 
L 21.578125 0 
z
" id="DejaVuSans-87"/>
       <path d="M 34.28125 27.484375 
Q 23.390625 27.484375 19.1875 25 
Q 14.984375 22.515625 14.984375 16.5 
Q 14.984375 11.71875 18.140625 8.90625 
Q 21.296875 6.109375 26.703125 6.109375 
Q 34.1875 6.109375 38.703125 11.40625 
Q 43.21875 16.703125 43.21875 25.484375 
L 43.21875 27.484375 
z
M 52.203125 31.203125 
L 52.203125 0 
L 43.21875 0 
L 43.21875 8.296875 
Q 40.140625 3.328125 35.546875 0.953125 
Q 30.953125 -1.421875 24.3125 -1.421875 
Q 15.921875 -1.421875 10.953125 3.296875 
Q 6 8.015625 6 15.921875 
Q 6 25.140625 12.171875 29.828125 
Q 18.359375 34.515625 30.609375 34.515625 
L 43.21875 34.515625 
L 43.21875 35.40625 
Q 43.21875 41.609375 39.140625 45 
Q 35.0625 48.390625 27.6875 48.390625 
Q 23 48.390625 18.546875 47.265625 
Q 14.109375 46.140625 10.015625 43.890625 
L 10.015625 52.203125 
Q 14.9375 54.109375 19.578125 55.046875 
Q 24.21875 56 28.609375 56 
Q 40.484375 56 46.34375 49.84375 
Q 52.203125 43.703125 52.203125 31.203125 
z
" id="DejaVuSans-97"/>
       <path d="M 18.3125 70.21875 
L 18.3125 54.6875 
L 36.8125 54.6875 
L 36.8125 47.703125 
L 18.3125 47.703125 
L 18.3125 18.015625 
Q 18.3125 11.328125 20.140625 9.421875 
Q 21.96875 7.515625 27.59375 7.515625 
L 36.8125 7.515625 
L 36.8125 0 
L 27.59375 0 
Q 17.1875 0 13.234375 3.875 
Q 9.28125 7.765625 9.28125 18.015625 
L 9.28125 47.703125 
L 2.6875 47.703125 
L 2.6875 54.6875 
L 9.28125 54.6875 
L 9.28125 70.21875 
z
" id="DejaVuSans-116"/>
       <path d="M 41.109375 46.296875 
Q 39.59375 47.171875 37.8125 47.578125 
Q 36.03125 48 33.890625 48 
Q 26.265625 48 22.1875 43.046875 
Q 18.109375 38.09375 18.109375 28.8125 
L 18.109375 0 
L 9.078125 0 
L 9.078125 54.6875 
L 18.109375 54.6875 
L 18.109375 46.1875 
Q 20.953125 51.171875 25.484375 53.578125 
Q 30.03125 56 36.53125 56 
Q 37.453125 56 38.578125 55.875 
Q 39.703125 55.765625 41.0625 55.515625 
z
" id="DejaVuSans-114"/>
      </defs>
      <g transform="translate(71.235276 291.155128)scale(0.15 -0.15)">
       <use xlink:href="#DejaVuSans-87"/>
       <use x="98.783203" xlink:href="#DejaVuSans-97"/>
       <use x="160.0625" xlink:href="#DejaVuSans-116"/>
       <use x="199.271484" xlink:href="#DejaVuSans-101"/>
       <use x="260.794922" xlink:href="#DejaVuSans-114"/>
      </g>
     </g>
    </g>
    <g id="xtick_6">
     <g id="line2d_6">
      <path clip-path="url(#p97f8700bd1)" d="M 157.683452 154.523187 
L 27.963444 184.130933 
" style="fill:none;stroke:#b0b0b0;stroke-linecap:square;stroke-width:0.8;"/>
     </g>
     <g id="text_6">
      <!-- Gas -->
      <defs>
       <path d="M 59.515625 10.40625 
L 59.515625 29.984375 
L 43.40625 29.984375 
L 43.40625 38.09375 
L 69.28125 38.09375 
L 69.28125 6.78125 
Q 63.578125 2.734375 56.6875 0.65625 
Q 49.8125 -1.421875 42 -1.421875 
Q 24.90625 -1.421875 15.25 8.5625 
Q 5.609375 18.5625 5.609375 36.375 
Q 5.609375 54.25 15.25 64.234375 
Q 24.90625 74.21875 42 74.21875 
Q 49.125 74.21875 55.546875 72.453125 
Q 61.96875 70.703125 67.390625 67.28125 
L 67.390625 56.78125 
Q 61.921875 61.421875 55.765625 63.765625 
Q 49.609375 66.109375 42.828125 66.109375 
Q 29.4375 66.109375 22.71875 58.640625 
Q 16.015625 51.171875 16.015625 36.375 
Q 16.015625 21.625 22.71875 14.15625 
Q 29.4375 6.6875 42.828125 6.6875 
Q 48.046875 6.6875 52.140625 7.59375 
Q 56.25 8.5 59.515625 10.40625 
z
" id="DejaVuSans-71"/>
      </defs>
      <g transform="translate(0 191.385288)scale(0.15 -0.15)">
       <use xlink:href="#DejaVuSans-71"/>
       <use x="77.490234" xlink:href="#DejaVuSans-97"/>
       <use x="138.769531" xlink:href="#DejaVuSans-115"/>
      </g>
     </g>
    </g>
    <g id="xtick_7">
     <g id="line2d_7">
      <path clip-path="url(#p97f8700bd1)" d="M 157.683452 154.523187 
L 53.656082 71.564128 
" style="fill:none;stroke:#b0b0b0;stroke-linecap:square;stroke-width:0.8;"/>
     </g>
     <g id="text_7">
      <!-- SQL -->
      <defs>
       <path d="M 53.515625 70.515625 
L 53.515625 60.890625 
Q 47.90625 63.578125 42.921875 64.890625 
Q 37.9375 66.21875 33.296875 66.21875 
Q 25.25 66.21875 20.875 63.09375 
Q 16.5 59.96875 16.5 54.203125 
Q 16.5 49.359375 19.40625 46.890625 
Q 22.3125 44.4375 30.421875 42.921875 
L 36.375 41.703125 
Q 47.40625 39.59375 52.65625 34.296875 
Q 57.90625 29 57.90625 20.125 
Q 57.90625 9.515625 50.796875 4.046875 
Q 43.703125 -1.421875 29.984375 -1.421875 
Q 24.8125 -1.421875 18.96875 -0.25 
Q 13.140625 0.921875 6.890625 3.21875 
L 6.890625 13.375 
Q 12.890625 10.015625 18.65625 8.296875 
Q 24.421875 6.59375 29.984375 6.59375 
Q 38.421875 6.59375 43.015625 9.90625 
Q 47.609375 13.234375 47.609375 19.390625 
Q 47.609375 24.75 44.3125 27.78125 
Q 41.015625 30.8125 33.5 32.328125 
L 27.484375 33.5 
Q 16.453125 35.6875 11.515625 40.375 
Q 6.59375 45.0625 6.59375 53.421875 
Q 6.59375 63.09375 13.40625 68.65625 
Q 20.21875 74.21875 32.171875 74.21875 
Q 37.3125 74.21875 42.625 73.28125 
Q 47.953125 72.359375 53.515625 70.515625 
z
" id="DejaVuSans-83"/>
       <path d="M 39.40625 66.21875 
Q 28.65625 66.21875 22.328125 58.203125 
Q 16.015625 50.203125 16.015625 36.375 
Q 16.015625 22.609375 22.328125 14.59375 
Q 28.65625 6.59375 39.40625 6.59375 
Q 50.140625 6.59375 56.421875 14.59375 
Q 62.703125 22.609375 62.703125 36.375 
Q 62.703125 50.203125 56.421875 58.203125 
Q 50.140625 66.21875 39.40625 66.21875 
z
M 53.21875 1.3125 
L 66.21875 -12.890625 
L 54.296875 -12.890625 
L 43.5 -1.21875 
Q 41.890625 -1.3125 41.03125 -1.359375 
Q 40.1875 -1.421875 39.40625 -1.421875 
Q 24.03125 -1.421875 14.8125 8.859375 
Q 5.609375 19.140625 5.609375 36.375 
Q 5.609375 53.65625 14.8125 63.9375 
Q 24.03125 74.21875 39.40625 74.21875 
Q 54.734375 74.21875 63.90625 63.9375 
Q 73.09375 53.65625 73.09375 36.375 
Q 73.09375 23.6875 67.984375 14.640625 
Q 62.890625 5.609375 53.21875 1.3125 
z
" id="DejaVuSans-81"/>
      </defs>
      <g transform="translate(27.866301 66.974334)scale(0.15 -0.15)">
       <use xlink:href="#DejaVuSans-83"/>
       <use x="63.476562" xlink:href="#DejaVuSans-81"/>
       <use x="142.1875" xlink:href="#DejaVuSans-76"/>
      </g>
     </g>
    </g>
   </g>
   <g id="matplotlib.axis_2">
    <g id="ytick_1">
     <g id="line2d_8">
      <path clip-path="url(#p97f8700bd1)" d="M 157.683452 127.911987 
L 160.46508 128.057766 
L 163.216232 128.493506 
L 165.906765 129.214432 
L 168.507202 130.212647 
L 170.989052 131.477212 
L 173.325123 132.994274 
L 175.489821 134.747212 
L 177.459428 136.716819 
L 179.212365 138.881517 
L 180.729427 141.217587 
L 181.993993 143.699437 
L 182.992207 146.299874 
L 183.713134 148.990408 
L 184.148873 151.74156 
L 184.294652 154.523187 
L 184.148873 157.304815 
L 183.713134 160.055967 
L 182.992207 162.746501 
L 181.993993 165.346938 
L 180.729427 167.828787 
L 179.212365 170.164858 
L 177.459428 172.329556 
L 175.489821 174.299163 
L 173.325123 176.052101 
L 170.989052 177.569163 
L 168.507202 178.833728 
L 165.906765 179.831943 
L 163.216232 180.552869 
L 160.46508 180.988609 
L 157.683452 181.134387 
L 154.901824 180.988609 
L 152.150673 180.552869 
L 149.460139 179.831943 
L 146.859702 178.833728 
L 144.377852 177.569163 
L 142.041781 176.052101 
L 139.877084 174.299163 
L 137.907477 172.329556 
L 136.154539 170.164858 
L 134.637477 167.828787 
L 133.372911 165.346938 
L 132.374697 162.746501 
L 131.653771 160.055967 
L 131.218031 157.304815 
L 131.072252 154.523187 
L 131.218031 151.74156 
L 131.653771 148.990408 
L 132.374697 146.299874 
L 133.372911 143.699437 
L 134.637477 141.217587 
L 136.154539 138.881517 
L 137.907477 136.716819 
L 139.877084 134.747212 
L 142.041781 132.994274 
L 144.377852 131.477212 
L 146.859702 130.212647 
L 149.460139 129.214432 
L 152.150673 128.493506 
L 154.901824 128.057766 
L 157.683452 127.911987 
L 157.683452 127.911987 
" style="fill:none;stroke:#b0b0b0;stroke-linecap:square;stroke-width:0.8;"/>
     </g>
     <g id="text_8">
      <!-- 20 -->
      <defs>
       <path d="M 19.1875 8.296875 
L 53.609375 8.296875 
L 53.609375 0 
L 7.328125 0 
L 7.328125 8.296875 
Q 12.9375 14.109375 22.625 23.890625 
Q 32.328125 33.6875 34.8125 36.53125 
Q 39.546875 41.84375 41.421875 45.53125 
Q 43.3125 49.21875 43.3125 52.78125 
Q 43.3125 58.59375 39.234375 62.25 
Q 35.15625 65.921875 28.609375 65.921875 
Q 23.96875 65.921875 18.8125 64.3125 
Q 13.671875 62.703125 7.8125 59.421875 
L 7.8125 69.390625 
Q 13.765625 71.78125 18.9375 73 
Q 24.125 74.21875 28.421875 74.21875 
Q 39.75 74.21875 46.484375 68.546875 
Q 53.21875 62.890625 53.21875 53.421875 
Q 53.21875 48.921875 51.53125 44.890625 
Q 49.859375 40.875 45.40625 35.40625 
Q 44.1875 33.984375 37.640625 27.21875 
Q 31.109375 20.453125 19.1875 8.296875 
z
" id="DejaVuSans-50"/>
       <path d="M 31.78125 66.40625 
Q 24.171875 66.40625 20.328125 58.90625 
Q 16.5 51.421875 16.5 36.375 
Q 16.5 21.390625 20.328125 13.890625 
Q 24.171875 6.390625 31.78125 6.390625 
Q 39.453125 6.390625 43.28125 13.890625 
Q 47.125 21.390625 47.125 36.375 
Q 47.125 51.421875 43.28125 58.90625 
Q 39.453125 66.40625 31.78125 66.40625 
z
M 31.78125 74.21875 
Q 44.046875 74.21875 50.515625 64.515625 
Q 56.984375 54.828125 56.984375 36.375 
Q 56.984375 17.96875 50.515625 8.265625 
Q 44.046875 -1.421875 31.78125 -1.421875 
Q 19.53125 -1.421875 13.0625 8.265625 
Q 6.59375 17.96875 6.59375 36.375 
Q 6.59375 54.828125 13.0625 64.515625 
Q 19.53125 74.21875 31.78125 74.21875 
z
" id="DejaVuSans-48"/>
      </defs>
      <g style="fill:#808080;" transform="translate(157.683452 126.456206)scale(0.07 -0.07)">
       <use xlink:href="#DejaVuSans-50"/>
       <use x="63.623047" xlink:href="#DejaVuSans-48"/>
      </g>
     </g>
    </g>
    <g id="ytick_2">
     <g id="line2d_9">
      <path clip-path="url(#p97f8700bd1)" d="M 157.683452 101.300787 
L 161.396059 101.430435 
L 165.090579 101.818744 
L 168.749011 102.463825 
L 172.353534 103.362533 
L 175.886585 104.510491 
L 179.330952 105.902106 
L 182.669855 107.530598 
L 185.887027 109.388033 
L 188.966794 111.465361 
L 191.894151 113.752464 
L 194.654838 116.238197 
L 197.235403 118.910451 
L 199.623276 121.756206 
L 201.806821 124.761599 
L 203.775403 127.911987 
L 205.519428 131.192023 
L 207.030402 134.585726 
L 208.300963 138.076561 
L 209.324919 141.647524 
L 210.097284 145.281215 
L 210.614294 148.959932 
L 210.873431 152.665753 
L 210.873431 156.380622 
L 210.614294 160.086443 
L 210.097284 163.76516 
L 209.324919 167.398851 
L 208.300963 170.969814 
L 207.030402 174.460649 
L 205.519428 177.854352 
L 203.775403 181.134387 
L 201.806821 184.284776 
L 199.623276 187.290169 
L 197.235403 190.135924 
L 194.654838 192.808178 
L 191.894151 195.293911 
L 188.966794 197.581014 
L 185.887027 199.658342 
L 182.669855 201.515777 
L 179.330952 203.144269 
L 175.886585 204.535884 
L 172.353534 205.683842 
L 168.749011 206.58255 
L 165.090579 207.227631 
L 161.396059 207.61594 
L 157.683452 207.745587 
L 153.970845 207.61594 
L 150.276326 207.227631 
L 146.617893 206.58255 
L 143.013371 205.683842 
L 139.480319 204.535884 
L 136.035952 203.144269 
L 132.697049 201.515777 
L 129.479877 199.658342 
L 126.40011 197.581014 
L 123.472753 195.293911 
L 120.712067 192.808178 
L 118.131501 190.135924 
L 115.743629 187.290169 
L 113.560083 184.284776 
L 111.591502 181.134387 
L 109.847476 177.854352 
L 108.336502 174.460649 
L 107.065942 170.969814 
L 106.041985 167.398851 
L 105.26962 163.76516 
L 104.75261 160.086443 
L 104.493474 156.380622 
L 104.493474 152.665753 
L 104.75261 148.959932 
L 105.26962 145.281215 
L 106.041985 141.647524 
L 107.065942 138.076561 
L 108.336502 134.585726 
L 109.847476 131.192023 
L 111.591502 127.911987 
L 113.560083 124.761599 
L 115.743629 121.756206 
L 118.131501 118.910451 
L 120.712067 116.238197 
L 123.472753 113.752464 
L 126.40011 111.465361 
L 129.479877 109.388033 
L 132.697049 107.530598 
L 136.035952 105.902106 
L 139.480319 104.510491 
L 143.013371 103.362533 
L 146.617893 102.463825 
L 150.276326 101.818744 
L 153.970845 101.430435 
L 157.683452 101.300787 
L 157.683452 101.300787 
" style="fill:none;stroke:#b0b0b0;stroke-linecap:square;stroke-width:0.8;"/>
     </g>
     <g id="text_9">
      <!-- 40 -->
      <defs>
       <path d="M 37.796875 64.3125 
L 12.890625 25.390625 
L 37.796875 25.390625 
z
M 35.203125 72.90625 
L 47.609375 72.90625 
L 47.609375 25.390625 
L 58.015625 25.390625 
L 58.015625 17.1875 
L 47.609375 17.1875 
L 47.609375 0 
L 37.796875 0 
L 37.796875 17.1875 
L 4.890625 17.1875 
L 4.890625 26.703125 
z
" id="DejaVuSans-52"/>
      </defs>
      <g style="fill:#808080;" transform="translate(157.683452 99.845006)scale(0.07 -0.07)">
       <use xlink:href="#DejaVuSans-52"/>
       <use x="63.623047" xlink:href="#DejaVuSans-48"/>
      </g>
     </g>
    </g>
    <g id="ytick_3">
     <g id="line2d_10">
      <path clip-path="url(#p97f8700bd1)" d="M 157.683452 74.689587 
L 163.252363 74.884058 
L 168.794142 75.466523 
L 174.281791 76.434143 
L 179.688575 77.782206 
L 184.988151 79.504143 
L 190.154703 81.591565 
L 195.163057 84.034303 
L 199.988815 86.820455 
L 204.608465 89.936448 
L 208.999501 93.367102 
L 213.140531 97.095702 
L 217.011379 101.104082 
L 220.593187 105.372716 
L 223.868506 109.880805 
L 226.821378 114.606387 
L 229.437417 119.526441 
L 231.703877 124.616995 
L 233.609718 129.853248 
L 235.145653 135.209692 
L 236.3042 140.660228 
L 237.079715 146.178304 
L 237.46842 151.737035 
L 237.46842 157.30934 
L 237.079715 162.868071 
L 236.3042 168.386147 
L 235.145653 173.836683 
L 233.609718 179.193127 
L 231.703877 184.42938 
L 229.437417 189.519934 
L 226.821378 194.439987 
L 223.868506 199.16557 
L 220.593187 203.673659 
L 217.011379 207.942293 
L 213.140531 211.950673 
L 208.999501 215.679273 
L 204.608465 219.109927 
L 199.988815 222.22592 
L 195.163057 225.012072 
L 190.154703 227.45481 
L 184.988151 229.542232 
L 179.688575 231.264169 
L 174.281791 232.612232 
L 168.794142 233.579852 
L 163.252363 234.162317 
L 157.683452 234.356787 
L 152.114542 234.162317 
L 146.572763 233.579852 
L 141.085113 232.612232 
L 135.67833 231.264169 
L 130.378753 229.542232 
L 125.212202 227.45481 
L 120.203847 225.012072 
L 115.37809 222.22592 
L 110.758439 219.109927 
L 106.367403 215.679273 
L 102.226374 211.950673 
L 98.355525 207.942293 
L 94.773717 203.673659 
L 91.498398 199.16557 
L 88.545527 194.439987 
L 85.929488 189.519934 
L 83.663027 184.42938 
L 81.757187 179.193127 
L 80.221251 173.836683 
L 79.062704 168.386147 
L 78.287189 162.868071 
L 77.898485 157.30934 
L 77.898485 151.737035 
L 78.287189 146.178304 
L 79.062704 140.660228 
L 80.221251 135.209692 
L 81.757187 129.853248 
L 83.663027 124.616995 
L 85.929488 119.526441 
L 88.545527 114.606387 
L 91.498398 109.880805 
L 94.773717 105.372716 
L 98.355525 101.104082 
L 102.226374 97.095702 
L 106.367403 93.367102 
L 110.758439 89.936448 
L 115.37809 86.820455 
L 120.203847 84.034303 
L 125.212202 81.591565 
L 130.378753 79.504143 
L 135.67833 77.782206 
L 141.085113 76.434143 
L 146.572763 75.466523 
L 152.114542 74.884058 
L 157.683452 74.689587 
L 157.683452 74.689587 
" style="fill:none;stroke:#b0b0b0;stroke-linecap:square;stroke-width:0.8;"/>
     </g>
     <g id="text_10">
      <!-- 60 -->
      <defs>
       <path d="M 33.015625 40.375 
Q 26.375 40.375 22.484375 35.828125 
Q 18.609375 31.296875 18.609375 23.390625 
Q 18.609375 15.53125 22.484375 10.953125 
Q 26.375 6.390625 33.015625 6.390625 
Q 39.65625 6.390625 43.53125 10.953125 
Q 47.40625 15.53125 47.40625 23.390625 
Q 47.40625 31.296875 43.53125 35.828125 
Q 39.65625 40.375 33.015625 40.375 
z
M 52.59375 71.296875 
L 52.59375 62.3125 
Q 48.875 64.0625 45.09375 64.984375 
Q 41.3125 65.921875 37.59375 65.921875 
Q 27.828125 65.921875 22.671875 59.328125 
Q 17.53125 52.734375 16.796875 39.40625 
Q 19.671875 43.65625 24.015625 45.921875 
Q 28.375 48.1875 33.59375 48.1875 
Q 44.578125 48.1875 50.953125 41.515625 
Q 57.328125 34.859375 57.328125 23.390625 
Q 57.328125 12.15625 50.6875 5.359375 
Q 44.046875 -1.421875 33.015625 -1.421875 
Q 20.359375 -1.421875 13.671875 8.265625 
Q 6.984375 17.96875 6.984375 36.375 
Q 6.984375 53.65625 15.1875 63.9375 
Q 23.390625 74.21875 37.203125 74.21875 
Q 40.921875 74.21875 44.703125 73.484375 
Q 48.484375 72.75 52.59375 71.296875 
z
" id="DejaVuSans-54"/>
      </defs>
      <g style="fill:#808080;" transform="translate(157.683452 73.233806)scale(0.07 -0.07)">
       <use xlink:href="#DejaVuSans-54"/>
       <use x="63.623047" xlink:href="#DejaVuSans-48"/>
      </g>
     </g>
    </g>
    <g id="ytick_4">
     <g id="line2d_11">
      <path clip-path="url(#p97f8700bd1)" d="M 157.683452 48.078387 
L 161.398322 48.143231 
L 165.108666 48.337682 
L 168.809964 48.661503 
L 172.497705 49.114301 
L 176.167398 49.695523 
L 179.814571 50.404462 
L 183.43478 51.240253 
L 187.023615 52.201879 
L 190.576704 53.288167 
L 194.089718 54.497794 
L 197.558376 55.829288 
L 200.978453 57.281024 
L 204.345781 58.851235 
L 207.656259 60.538008 
L 210.905852 62.339287 
L 214.090602 64.252878 
L 217.206629 66.276449 
L 220.250136 68.407535 
L 223.217415 70.64354 
L 226.104851 72.98174 
L 228.908926 75.419285 
L 231.626223 77.953206 
L 234.253433 80.580416 
L 236.787354 83.297714 
L 239.2249 86.101789 
L 241.563099 88.989225 
L 243.799104 91.956504 
L 245.930191 95.000011 
L 247.953762 98.116037 
L 249.867353 101.300787 
L 251.668632 104.550381 
L 253.355405 107.860858 
L 254.925616 111.228187 
L 256.377352 114.648264 
L 257.708845 118.116922 
L 258.918473 121.629935 
L 260.004761 125.183024 
L 260.966387 128.77186 
L 261.802178 132.392069 
L 262.511116 136.039242 
L 263.092339 139.708935 
L 263.545136 143.396676 
L 263.868958 147.097974 
L 264.063409 150.808318 
L 264.128252 154.523187 
L 264.063409 158.238057 
L 263.868958 161.948401 
L 263.545136 165.649699 
L 263.092339 169.33744 
L 262.511116 173.007133 
L 261.802178 176.654306 
L 260.966387 180.274515 
L 260.004761 183.863351 
L 258.918473 187.41644 
L 257.708845 190.929453 
L 256.377352 194.398111 
L 254.925616 197.818188 
L 253.355405 201.185517 
L 251.668632 204.495994 
L 249.867353 207.745587 
L 247.953762 210.930338 
L 245.930191 214.046364 
L 243.799104 217.089871 
L 241.563099 220.05715 
L 239.2249 222.944586 
L 236.787354 225.748661 
L 234.253433 228.465959 
L 231.626223 231.093169 
L 228.908926 233.62709 
L 226.104851 236.064635 
L 223.217415 238.402835 
L 220.250136 240.63884 
L 217.206629 242.769926 
L 214.090602 244.793497 
L 210.905852 246.707088 
L 207.656259 248.508367 
L 204.345781 250.19514 
L 200.978453 251.765351 
L 197.558376 253.217087 
L 194.089718 254.548581 
L 190.576704 255.758208 
L 187.023615 256.844496 
L 183.43478 257.806122 
L 179.814571 258.641913 
L 176.167398 259.350852 
L 172.497705 259.932074 
L 168.809964 260.384872 
L 165.108666 260.708693 
L 161.398322 260.903144 
L 157.683452 260.967987 
L 153.968582 260.903144 
L 150.258238 260.708693 
L 146.556941 260.384872 
L 142.869199 259.932074 
L 139.199507 259.350852 
L 135.552334 258.641913 
L 131.932124 257.806122 
L 128.343289 256.844496 
L 124.7902 255.758208 
L 121.277186 254.548581 
L 117.808528 253.217087 
L 114.388452 251.765351 
L 111.021123 250.19514 
L 107.710646 248.508367 
L 104.461052 246.707088 
L 101.276302 244.793497 
L 98.160275 242.769926 
L 95.116769 240.63884 
L 92.14949 238.402835 
L 89.262054 236.064635 
L 86.457979 233.62709 
L 83.740681 231.093169 
L 81.113471 228.465959 
L 78.57955 225.748661 
L 76.142005 222.944586 
L 73.803805 220.05715 
L 71.5678 217.089871 
L 69.436714 214.046364 
L 67.413142 210.930338 
L 65.499551 207.745587 
L 63.698272 204.495994 
L 62.0115 201.185517 
L 60.441289 197.818188 
L 58.989552 194.398111 
L 57.658059 190.929453 
L 56.448432 187.41644 
L 55.362143 183.863351 
L 54.400518 180.274515 
L 53.564726 176.654306 
L 52.855788 173.007133 
L 52.274566 169.33744 
L 51.821768 165.649699 
L 51.497946 161.948401 
L 51.303495 158.238057 
L 51.238652 154.523187 
L 51.303495 150.808318 
L 51.497946 147.097974 
L 51.821768 143.396676 
L 52.274566 139.708935 
L 52.855788 136.039242 
L 53.564726 132.392069 
L 54.400518 128.77186 
L 55.362143 125.183024 
L 56.448432 121.629935 
L 57.658059 118.116922 
L 58.989552 114.648264 
L 60.441289 111.228187 
L 62.0115 107.860858 
L 63.698272 104.550381 
L 65.499551 101.300787 
L 67.413142 98.116037 
L 69.436714 95.000011 
L 71.5678 91.956504 
L 73.803805 88.989225 
L 76.142005 86.101789 
L 78.57955 83.297714 
L 81.113471 80.580416 
L 83.740681 77.953206 
L 86.457979 75.419285 
L 89.262054 72.98174 
L 92.14949 70.64354 
L 95.116769 68.407535 
L 98.160275 66.276449 
L 101.276302 64.252878 
L 104.461052 62.339287 
L 107.710646 60.538008 
L 111.021123 58.851235 
L 114.388452 57.281024 
L 117.808528 55.829288 
L 121.277186 54.497794 
L 124.7902 53.288167 
L 128.343289 52.201879 
L 131.932124 51.240253 
L 135.552334 50.404462 
L 139.199507 49.695523 
L 142.869199 49.114301 
L 146.556941 48.661503 
L 150.258238 48.337682 
L 153.968582 48.143231 
L 157.683452 48.078387 
L 157.683452 48.078387 
" style="fill:none;stroke:#b0b0b0;stroke-linecap:square;stroke-width:0.8;"/>
     </g>
     <g id="text_11">
      <!-- 80 -->
      <defs>
       <path d="M 31.78125 34.625 
Q 24.75 34.625 20.71875 30.859375 
Q 16.703125 27.09375 16.703125 20.515625 
Q 16.703125 13.921875 20.71875 10.15625 
Q 24.75 6.390625 31.78125 6.390625 
Q 38.8125 6.390625 42.859375 10.171875 
Q 46.921875 13.96875 46.921875 20.515625 
Q 46.921875 27.09375 42.890625 30.859375 
Q 38.875 34.625 31.78125 34.625 
z
M 21.921875 38.8125 
Q 15.578125 40.375 12.03125 44.71875 
Q 8.5 49.078125 8.5 55.328125 
Q 8.5 64.0625 14.71875 69.140625 
Q 20.953125 74.21875 31.78125 74.21875 
Q 42.671875 74.21875 48.875 69.140625 
Q 55.078125 64.0625 55.078125 55.328125 
Q 55.078125 49.078125 51.53125 44.71875 
Q 48 40.375 41.703125 38.8125 
Q 48.828125 37.15625 52.796875 32.3125 
Q 56.78125 27.484375 56.78125 20.515625 
Q 56.78125 9.90625 50.3125 4.234375 
Q 43.84375 -1.421875 31.78125 -1.421875 
Q 19.734375 -1.421875 13.25 4.234375 
Q 6.78125 9.90625 6.78125 20.515625 
Q 6.78125 27.484375 10.78125 32.3125 
Q 14.796875 37.15625 21.921875 38.8125 
z
M 18.3125 54.390625 
Q 18.3125 48.734375 21.84375 45.5625 
Q 25.390625 42.390625 31.78125 42.390625 
Q 38.140625 42.390625 41.71875 45.5625 
Q 45.3125 48.734375 45.3125 54.390625 
Q 45.3125 60.0625 41.71875 63.234375 
Q 38.140625 66.40625 31.78125 66.40625 
Q 25.390625 66.40625 21.84375 63.234375 
Q 18.3125 60.0625 18.3125 54.390625 
z
" id="DejaVuSans-56"/>
      </defs>
      <g style="fill:#808080;" transform="translate(157.683452 46.622606)scale(0.07 -0.07)">
       <use xlink:href="#DejaVuSans-56"/>
       <use x="63.623047" xlink:href="#DejaVuSans-48"/>
      </g>
     </g>
    </g>
   </g>
   <g id="line2d_12">
    <path clip-path="url(#p97f8700bd1)" d="M 157.683452 141.217587 
L 168.086189 146.227282 
L 170.655453 157.483962 
L 163.456536 166.511119 
L 151.910369 166.511119 
L 144.711451 157.483962 
L 147.280715 146.227282 
L 157.683452 141.217587 
" style="fill:none;stroke:#1f77b4;stroke-linecap:square;"/>
   </g>
   <g id="line2d_13">
    <path clip-path="url(#p97f8700bd1)" d="M 157.683452 127.911987 
L 178.488926 137.931376 
L 183.627454 160.444737 
L 169.229619 178.49905 
L 146.137285 178.49905 
L 131.739451 160.444737 
L 136.877978 137.931376 
L 157.683452 127.911987 
" style="fill:none;stroke:#ff7f0e;stroke-linecap:square;"/>
   </g>
   <g id="patch_5">
    <path d="M 157.683452 21.467187 
C 140.210698 21.467187 122.907845 24.908939 106.765125 31.595472 
C 90.622406 38.282006 75.953755 48.083285 63.598652 60.438388 
C 51.24355 72.79349 41.442271 87.462141 34.755737 103.604861 
C 28.069204 119.74758 24.627452 137.050434 24.627452 154.523187 
C 24.627452 171.995941 28.069204 189.298795 34.755737 205.441514 
C 41.442271 221.584234 51.24355 236.252885 63.598652 248.607987 
C 75.953755 260.96309 90.622406 270.764369 106.765125 277.450903 
C 122.907845 284.137436 140.210698 287.579187 157.683452 287.579187 
C 175.156206 287.579187 192.459059 284.137436 208.601779 277.450903 
C 224.744499 270.764369 239.413149 260.96309 251.768252 248.607987 
C 264.123355 236.252885 273.924634 221.584234 280.611167 205.441514 
C 287.297701 189.298795 290.739452 171.995941 290.739452 154.523187 
C 290.739452 137.050434 287.297701 119.74758 280.611167 103.604861 
C 273.924634 87.462141 264.123355 72.79349 251.768252 60.438388 
C 239.413149 48.083285 224.744499 38.282006 208.601779 31.595472 
C 192.459059 24.908939 175.156206 21.467187 157.683452 21.467187 
" style="fill:none;stroke:#000000;stroke-linecap:square;stroke-linejoin:miter;stroke-width:0.8;"/>
   </g>
   <g id="legend_1">
    <g id="patch_6">
     <path d="M 259.08399 298.324237 
L 363.573052 298.324237 
Q 365.573052 298.324237 365.573052 296.324237 
L 365.573052 267.967987 
Q 365.573052 265.967987 363.573052 265.967987 
L 259.08399 265.967987 
Q 257.08399 265.967987 257.08399 267.967987 
L 257.08399 296.324237 
Q 257.08399 298.324237 259.08399 298.324237 
z
" style="fill:#ffffff;opacity:0.8;stroke:#cccccc;stroke-linejoin:miter;"/>
    </g>
    <g id="line2d_14">
     <path d="M 261.08399 274.066425 
L 281.08399 274.066425 
" style="fill:none;stroke:#1f77b4;stroke-linecap:square;"/>
    </g>
    <g id="line2d_15"/>
    <g id="text_12">
     <!-- Current Ability -->
     <defs>
      <path d="M 64.40625 67.28125 
L 64.40625 56.890625 
Q 59.421875 61.53125 53.78125 63.8125 
Q 48.140625 66.109375 41.796875 66.109375 
Q 29.296875 66.109375 22.65625 58.46875 
Q 16.015625 50.828125 16.015625 36.375 
Q 16.015625 21.96875 22.65625 14.328125 
Q 29.296875 6.6875 41.796875 6.6875 
Q 48.140625 6.6875 53.78125 8.984375 
Q 59.421875 11.28125 64.40625 15.921875 
L 64.40625 5.609375 
Q 59.234375 2.09375 53.4375 0.328125 
Q 47.65625 -1.421875 41.21875 -1.421875 
Q 24.65625 -1.421875 15.125 8.703125 
Q 5.609375 18.84375 5.609375 36.375 
Q 5.609375 53.953125 15.125 64.078125 
Q 24.65625 74.21875 41.21875 74.21875 
Q 47.75 74.21875 53.53125 72.484375 
Q 59.328125 70.75 64.40625 67.28125 
z
" id="DejaVuSans-67"/>
      <path d="M 8.5 21.578125 
L 8.5 54.6875 
L 17.484375 54.6875 
L 17.484375 21.921875 
Q 17.484375 14.15625 20.5 10.265625 
Q 23.53125 6.390625 29.59375 6.390625 
Q 36.859375 6.390625 41.078125 11.03125 
Q 45.3125 15.671875 45.3125 23.6875 
L 45.3125 54.6875 
L 54.296875 54.6875 
L 54.296875 0 
L 45.3125 0 
L 45.3125 8.40625 
Q 42.046875 3.421875 37.71875 1 
Q 33.40625 -1.421875 27.6875 -1.421875 
Q 18.265625 -1.421875 13.375 4.4375 
Q 8.5 10.296875 8.5 21.578125 
z
M 31.109375 56 
z
" id="DejaVuSans-117"/>
      <path d="M 54.890625 33.015625 
L 54.890625 0 
L 45.90625 0 
L 45.90625 32.71875 
Q 45.90625 40.484375 42.875 44.328125 
Q 39.84375 48.1875 33.796875 48.1875 
Q 26.515625 48.1875 22.3125 43.546875 
Q 18.109375 38.921875 18.109375 30.90625 
L 18.109375 0 
L 9.078125 0 
L 9.078125 54.6875 
L 18.109375 54.6875 
L 18.109375 46.1875 
Q 21.34375 51.125 25.703125 53.5625 
Q 30.078125 56 35.796875 56 
Q 45.21875 56 50.046875 50.171875 
Q 54.890625 44.34375 54.890625 33.015625 
z
" id="DejaVuSans-110"/>
      <path id="DejaVuSans-32"/>
      <path d="M 48.6875 27.296875 
Q 48.6875 37.203125 44.609375 42.84375 
Q 40.53125 48.484375 33.40625 48.484375 
Q 26.265625 48.484375 22.1875 42.84375 
Q 18.109375 37.203125 18.109375 27.296875 
Q 18.109375 17.390625 22.1875 11.75 
Q 26.265625 6.109375 33.40625 6.109375 
Q 40.53125 6.109375 44.609375 11.75 
Q 48.6875 17.390625 48.6875 27.296875 
z
M 18.109375 46.390625 
Q 20.953125 51.265625 25.265625 53.625 
Q 29.59375 56 35.59375 56 
Q 45.5625 56 51.78125 48.09375 
Q 58.015625 40.1875 58.015625 27.296875 
Q 58.015625 14.40625 51.78125 6.484375 
Q 45.5625 -1.421875 35.59375 -1.421875 
Q 29.59375 -1.421875 25.265625 0.953125 
Q 20.953125 3.328125 18.109375 8.203125 
L 18.109375 0 
L 9.078125 0 
L 9.078125 75.984375 
L 18.109375 75.984375 
z
" id="DejaVuSans-98"/>
      <path d="M 9.421875 75.984375 
L 18.40625 75.984375 
L 18.40625 0 
L 9.421875 0 
z
" id="DejaVuSans-108"/>
      <path d="M 32.171875 -5.078125 
Q 28.375 -14.84375 24.75 -17.8125 
Q 21.140625 -20.796875 15.09375 -20.796875 
L 7.90625 -20.796875 
L 7.90625 -13.28125 
L 13.1875 -13.28125 
Q 16.890625 -13.28125 18.9375 -11.515625 
Q 21 -9.765625 23.484375 -3.21875 
L 25.09375 0.875 
L 2.984375 54.6875 
L 12.5 54.6875 
L 29.59375 11.921875 
L 46.6875 54.6875 
L 56.203125 54.6875 
z
" id="DejaVuSans-121"/>
     </defs>
     <g transform="translate(289.08399 277.566425)scale(0.1 -0.1)">
      <use xlink:href="#DejaVuSans-67"/>
      <use x="69.824219" xlink:href="#DejaVuSans-117"/>
      <use x="133.203125" xlink:href="#DejaVuSans-114"/>
      <use x="174.300781" xlink:href="#DejaVuSans-114"/>
      <use x="215.382812" xlink:href="#DejaVuSans-101"/>
      <use x="276.90625" xlink:href="#DejaVuSans-110"/>
      <use x="340.285156" xlink:href="#DejaVuSans-116"/>
      <use x="379.494141" xlink:href="#DejaVuSans-32"/>
      <use x="411.28125" xlink:href="#DejaVuSans-65"/>
      <use x="479.689453" xlink:href="#DejaVuSans-98"/>
      <use x="543.166016" xlink:href="#DejaVuSans-105"/>
      <use x="570.949219" xlink:href="#DejaVuSans-108"/>
      <use x="598.732422" xlink:href="#DejaVuSans-105"/>
      <use x="626.515625" xlink:href="#DejaVuSans-116"/>
      <use x="665.724609" xlink:href="#DejaVuSans-121"/>
     </g>
    </g>
    <g id="line2d_16">
     <path d="M 261.08399 288.74455 
L 281.08399 288.74455 
" style="fill:none;stroke:#ff7f0e;stroke-linecap:square;"/>
    </g>
    <g id="line2d_17"/>
    <g id="text_13">
     <!-- Interest -->
     <defs>
      <path d="M 9.8125 72.90625 
L 19.671875 72.90625 
L 19.671875 0 
L 9.8125 0 
z
" id="DejaVuSans-73"/>
     </defs>
     <g transform="translate(289.08399 292.24455)scale(0.1 -0.1)">
      <use xlink:href="#DejaVuSans-73"/>
      <use x="29.492188" xlink:href="#DejaVuSans-110"/>
      <use x="92.871094" xlink:href="#DejaVuSans-116"/>
      <use x="132.080078" xlink:href="#DejaVuSans-101"/>
      <use x="193.603516" xlink:href="#DejaVuSans-114"/>
      <use x="234.685547" xlink:href="#DejaVuSans-101"/>
      <use x="296.208984" xlink:href="#DejaVuSans-115"/>
      <use x="348.308594" xlink:href="#DejaVuSans-116"/>
     </g>
    </g>
   </g>
  </g>
 </g>
 <defs>
  <clipPath id="p97f8700bd1">
   <path d="M 290.739452 154.523187 
C 290.739452 137.050434 287.297701 119.74758 280.611167 103.604861 
C 273.924634 87.462141 264.123355 72.79349 251.768252 60.438388 
C 239.413149 48.083285 224.744499 38.282006 208.601779 31.595472 
C 192.459059 24.908939 175.156206 21.467187 157.683452 21.467187 
C 140.210698 21.467187 122.907845 24.908939 106.765125 31.595472 
C 90.622406 38.282006 75.953755 48.083285 63.598652 60.438388 
C 51.24355 72.79349 41.442271 87.462141 34.755737 103.604861 
C 28.069204 119.74758 24.627452 137.050434 24.627452 154.523187 
C 24.627452 171.995941 28.069204 189.298795 34.755737 205.441514 
C 41.442271 221.584234 51.24355 236.252885 63.598652 248.607987 
C 75.953755 260.96309 90.622406 270.764369 106.765125 277.450903 
C 122.907845 284.137436 140.210698 287.579187 157.683452 287.579187 
C 175.156206 287.579187 192.459059 284.137436 208.601779 277.450903 
C 224.744499 270.764369 239.413149 260.96309 251.768252 248.607987 
C 264.123355 236.252885 273.924634 221.584234 280.611167 205.441514 
C 287.297701 189.298795 290.739452 171.995941 290.739452 154.523188 
M 157.683452 154.523187 
C 157.683452 154.523187 157.683452 154.523187 157.683452 154.523187 
C 157.683452 154.523187 157.683452 154.523187 157.683452 154.523187 
C 157.683452 154.523187 157.683452 154.523187 157.683452 154.523187 
C 157.683452 154.523187 157.683452 154.523187 157.683452 154.523187 
C 157.683452 154.523187 157.683452 154.523187 157.683452 154.523187 
C 157.683452 154.523187 157.683452 154.523187 157.683452 154.523187 
C 157.683452 154.523187 157.683452 154.523187 157.683452 154.523187 
C 157.683452 154.523187 157.683452 154.523187 157.683452 154.523187 
C 157.683452 154.523187 157.683452 154.523187 157.683452 154.523187 
C 157.683452 154.523187 157.683452 154.523187 157.683452 154.523187 
C 157.683452 154.523187 157.683452 154.523187 157.683452 154.523187 
C 157.683452 154.523187 157.683452 154.523187 157.683452 154.523187 
C 157.683452 154.523187 157.683452 154.523187 157.683452 154.523187 
C 157.683452 154.523187 157.683452 154.523187 157.683452 154.523187 
C 157.683452 154.523187 157.683452 154.523187 157.683452 154.523187 
C 157.683452 154.523187 157.683452 154.523187 157.683452 154.523187 
M 290.739452 154.523187 
z
"/>
  </clipPath>
 </defs>
</svg>
