<svg height="512pt" viewBox="0 -48 512 511" width="512pt" xmlns="http://www.w3.org/2000/svg"><g fill-rule="evenodd"><path d="m40.097656 235.117188c-17.945312 0-32.601562 14.660156-32.601562 32.613281v107.65625c0 17.949219 14.65625 32.613281 32.601562 32.613281h431.777344c17.941406 0 32.628906-14.664062 32.628906-32.613281v-107.65625c0-17.953125-14.6875-32.613281-32.628906-32.613281-248.316406 0-196.671875 0-431.777344 0zm0 0" fill="#a66d30"/><path d="m103.535156 25.390625c6.40625 56.238281 64.09375 96.085937 93.433594 58.394531l.140625-.167968c1.277344-1.644532 2.410156-3.320313 3.375-5.019532 18.933594-32.472656-12.304687-74.050781-79.882813-70.363281-11.054687.625-17.800781 5.332031-17.066406 17.15625zm0 0" fill="#8fde56"/><path d="m103.535156 25.390625c6.40625 56.238281 64.09375 96.085937 93.433594 58.394531l.140625-.167968c.992187-1.304688 1.898437-2.609376 2.722656-3.941407-30.417969 10.691407-70.925781-24.648437-76.226562-71.242187 0-.113282 0-.226563-.027344-.3125-.964844.027344-1.984375.085937-2.976563.113281-11.054687.625-17.800781 5.332031-17.066406 17.15625zm0 0" fill="#47a831"/><path d="m228.289062 191.527344c-147.683593 204.136718 175.808594 211.421875 32.828126-.683594-13.324219-19.054688-21.769532-14.574219-32.828126.683594zm0 0" fill="#f5df87"/><path d="m259.386719 188.433594c-12.332031-16.25-20.523438-11.511719-31.097657 3.09375-83.253906 115.054687-16.777343 167.609375 31.46875 153.511718-39.320312-9.554687-69.140624-61.652343-2.210937-154.136718.621094-.851563 1.21875-1.671875 1.839844-2.46875zm0 0" fill="#d9a13f"/><path d="m385.585938 25.390625c-6.40625 56.238281-64.0625 96.085937-93.429688 58.394531l-.140625-.167968c-1.277344-1.644532-2.382813-3.320313-3.375-5.019532-18.9375-32.472656 12.300781-74.050781 79.882813-70.363281 11.054687.625 17.800781 5.332031 17.0625 17.15625zm0 0" fill="#8fde56"/><path d="m385.585938 25.390625c-6.40625 56.238281-64.0625 96.085937-93.429688 58.394531l-.140625-.167968c-.992187-1.304688-1.902344-2.609376-2.722656-3.941407 30.417969 10.691407 70.925781-24.648437 76.222656-71.242187 0-.113282 0-.226563.03125-.3125.960937.027344 1.980469.085937 2.972656.113281 11.058594.625 17.804688 5.332031 17.066407 17.15625zm0 0" fill="#47a831"/><path d="m7.496094 375.386719c0 17.953125 14.65625 32.613281 32.601562 32.613281h431.777344c17.941406 0 32.628906-14.660156 32.628906-32.613281v-23.597657c0 17.925782-14.6875 32.613282-32.628906 32.613282h-431.777344c-17.945312 0-32.601562-14.6875-32.601562-32.613282zm0 0" fill="#6e3e0b"/></g><path d="m81.484375 360.484375h3.683594c4.140625 0 7.496093-3.359375 7.496093-7.503906 0-4.140625-3.355468-7.5-7.496093-7.5h-3.683594c-4.140625 0-7.5 3.359375-7.5 7.5 0 4.144531 3.359375 7.503906 7.5 7.503906zm0 0"/><path d="m126.042969 285.269531c4.140625 0 7.5-3.359375 7.5-7.5s-3.359375-7.5-7.5-7.5h-3.65625c-4.140625 0-7.496094 3.359375-7.496094 7.5s3.355469 7.5 7.496094 7.5zm0 0"/><path d="m68.953125 296.84375h-3.65625c-4.140625 0-7.496094 3.355469-7.496094 7.5 0 4.140625 3.355469 7.5 7.496094 7.5h3.65625c4.140625 0 7.5-3.359375 7.5-7.5 0-4.144531-3.359375-7.5-7.5-7.5zm0 0"/><path d="m426.179688 345.480469c-4.140626 0-7.496094 3.359375-7.496094 7.5 0 4.144531 3.355468 7.5 7.496094 7.5h3.65625c4.140624 0 7.5-3.355469 7.5-7.5 0-4.140625-3.359376-7.5-7.5-7.5zm0 0"/><path d="m388.960938 285.269531c4.140624 0 7.5-3.359375 7.5-7.5s-3.359376-7.5-7.5-7.5h-3.65625c-4.140626 0-7.5 3.359375-7.5 7.5s3.359374 7.5 7.5 7.5zm0 0"/><path d="m442.394531 311.84375h3.65625c4.140625 0 7.5-3.359375 7.5-7.5s-3.359375-7.5-7.5-7.5h-3.65625c-4.140625 0-7.5 3.359375-7.5 7.5s3.359375 7.5 7.5 7.5zm0 0"/><path d="m471.875 227.613281h-181.117188c-5.726562-12.40625-13.363281-26.039062-23.425781-40.964843-.023437-.03125-.046875-.066407-.070312-.101563-3.550781-5.078125-8.640625-11.421875-15.203125-14.28125v-62.964844l34.386718-20.652343c8.984376 11.390624 21.105469 17.402343 34.472657 17.402343 4.300781 0 8.730469-.625 13.222656-1.890625 14-3.9375 27.65625-13.777344 38.453125-27.695312 11.128906-14.34375 18.386719-32.183594 20.441406-50.226563.015625-.125.027344-.253906.035156-.378906.445313-7.179687-1.28125-13.019531-5.140624-17.367187-4.140626-4.664063-10.527344-7.269532-19-7.75-49.011719-2.6875-77.519532 17.339843-87.835938 36.96875-6.371094 12.121093-7.003906 25.597656-2.164062 37.949218l-34.367188 20.644532-34.367188-20.640626c4.847657-12.347656 4.21875-25.820312-2.148437-37.941406-10.3125-19.632812-38.808594-39.660156-87.867187-36.980468-8.460938.476562-14.847657 3.085937-18.988282 7.75-3.855468 4.347656-5.585937 10.1875-5.136718 17.363281.007812.128906.015624.257812.03125.382812 2.054687 18.042969 9.316406 35.878907 20.441406 50.222657 10.800781 13.921874 24.457031 23.757812 38.457031 27.699218 4.492187 1.265625 8.917969 1.886719 13.21875 1.886719 13.367187 0 25.492187-6.011719 34.476563-17.398437l34.382812 20.652343v63.363281c-5.761719 2.84375-10.515625 8.488282-14.847656 14.464844-10.125 13.996094-18.394532 27.511719-24.792969 40.484375h-51.449219c-4.144531 0-7.5 3.359375-7.5 7.5 0 4.144531 3.355469 7.503907 7.5 7.503907h44.789063c-4.972657 12.667968-8.027344 24.765624-9.117188 36.214843-1.261719 13.234375.199219 24.148438 3.074219 33.066407l-10.378906 10.96875-8.40625-5.71875c-6.691406-4.574219-10.746094-4.097657-16.632813-2.761719-.589843.132812-1.230469.277343-1.9375.425781l-8.957031 1.902344c-4.050781.859375-6.640625 4.839844-5.78125 8.894531.859375 4.050781 4.839844 6.640625 8.890625 5.78125l8.953125-1.898437c.777344-.167969 1.484375-.324219 2.140625-.472657 1.152344-.261719 2.578125-.601562 2.960937-.5625.019532.003907.5.121094 1.914063 1.085938l6.40625 4.363281-4.222656 4.460938c-6.980469 7.351562-6.402344 13.339843-5.734375 20.269531l.984375 10.261719c.375 3.878906 3.636719 6.78125 7.457031 6.78125.238281 0 .480469-.007813.726562-.03125 4.121094-.398438 7.140626-4.0625 6.746094-8.183594l-.988281-10.265625c-.554687-5.761719-.585937-6.105469 1.6875-8.507813l21-22.1875c2.679687 4.207032 5.601563 7.671875 8.421875 10.472656 11.78125 11.699219 27.960938 17.710938 44.144531 17.710938 12.863281 0 25.730469-3.804688 36.390625-11.566406.003906-.003906.011719-.003906.015625-.007813.011719-.007812.023438-.019531.035157-.027343.054687-.042969.117187-.078126.171874-.121094 8.4375-6.21875 14.953126-14.488282 19.257813-24.292969l19.640625 20.753906c2.269531 2.386719 2.234375 2.730469 1.679688 8.472657l-.984376 10.292968c-.394531 4.125 2.628907 7.785156 6.75 8.179688.242188.023437.484376.035156.722657.035156 3.820312 0 7.085937-2.90625 7.457031-6.785156l.980469-10.277344c.671875-6.917969 1.25-12.898438-5.722657-20.242188l-4.242187-4.480468 6.40625-4.375c1.402344-.953125 1.882813-1.0625 1.886719-1.0625.390625-.054688 1.832031.292968 2.988281.554687.65625.148438 1.367187.3125 2.144531.476563l8.960938 1.898437c4.050781.863281 8.03125-1.726562 8.890625-5.78125.855469-4.054687-1.730469-8.035156-5.78125-8.894531l-8.960938-1.902344c-.707031-.148437-1.347656-.292968-1.941406-.429687-5.871094-1.328125-9.917969-1.808594-16.621094 2.738281l-8.410156 5.742188-10.9375-11.554688c2.332031-13.988281 1.617187-33.597656-7.902344-59.417969h174.882813c13.859375 0 25.128906 11.265625 25.128906 25.113281v107.652344c0 13.847656-11.273438 25.113282-25.128906 25.113282h-431.773438c-13.839844 0-25.101562-11.265626-25.101562-25.113282v-107.648437c0-13.847657 11.261718-25.113281 25.101562-25.113281h63.75c4.140625 0 7.5-3.359376 7.5-7.5 0-4.140626-3.359375-7.5-7.5-7.5h-63.75c-22.109375-.003907-40.097656 17.992187-40.097656 40.113281v107.65625c0 22.121093 17.988281 40.113281 40.097656 40.113281h431.777344c22.125 0 40.125-17.992188 40.125-40.113281v-107.65625c0-22.121094-18-40.117188-40.125-40.117188zm-177.507812-182.921875c8.152343-15.503906 31.796874-31.257812 73.734374-28.964844 4.265626.238282 7.246094 1.183594 8.617188 2.730469 1.085938 1.222657 1.554688 3.339844 1.394531 6.285157-4.015625 34.554687-27.722656 59.261718-48.035156 64.980468-8.507813 2.398438-20.558594 2.679688-30.628906-8.882812l27.066406-16.257813c3.550781-2.132812 4.703125-6.742187 2.570313-10.292969-2.132813-3.550781-6.738282-4.699218-10.289063-2.570312l-26.742187 16.0625c-2.320313-7.644531-1.59375-15.648438 2.3125-23.089844zm-135.320313 45.03125c-20.3125-5.71875-44.019531-30.425781-48.039063-64.980468-.160156-2.949219.3125-5.0625 1.398438-6.285157 1.371094-1.550781 4.351562-2.492187 8.605469-2.734375 41.957031-2.285156 65.613281 13.46875 73.761719 28.980469 3.90625 7.4375 4.628906 15.441406 2.300781 23.078125l-26.75-16.066406c-3.550781-2.128906-8.15625-.980469-10.289063 2.570312-2.128906 3.554688-.980468 8.160156 2.570313 10.296875l27.070312 16.257813c-10.070312 11.558594-22.121093 11.277344-30.628906 8.882812zm118.628906 235.976563-9.199219-13.417969 2.058594-21.074219c.347656-3.558593-1.859375-6.867187-5.277344-7.90625l-19.730468-6.015625c-3.960938-1.203125-8.148438 1.03125-9.355469 4.992188-1.207031 3.964844 1.023437 8.15625 4.984375 9.363281l13.855469 4.222656-1.726563 17.679688c-.171875 1.753906.28125 3.515625 1.28125 4.972656l11.085938 16.167969c-17.769532 9.035156-40.75 5.917968-55.113282-8.351563-4.265624-4.234375-7.554687-9.125-9.929687-14.566406-.175781-.675781-.449219-1.332031-.816406-1.945313-10.546875-27.359374 1.492187-68.175781 34.566406-113.890624 6.414063-8.847657 9.417969-10.179688 10.648437-10.179688h.011719c.566407.003906 3.707031.476562 9.917969 9.347656 10.640625 15.78125 18.363281 29.875 23.882812 42.421875.144532.421875.320313.828125.53125 1.214844 12.824219 29.6875 13.148438 50.523437 10.136719 64.023437 0 .007813-.003906.011719-.003906.019532-2.019531 9.027344-6.058594 16.820312-11.808594 22.921875zm0 0"/></svg>